<svg xmlns="http://www.w3.org/2000/svg" xmlns:xlink="http://www.w3.org/1999/xlink" width="500" zoomAndPan="magnify" viewBox="0 0 375 374.999991" height="500" preserveAspectRatio="xMidYMid meet" version="1.0"><path fill="#1f2020" d="M 272.847656 176.761719 L 272.847656 176.757812 L 272.324219 176.359375 C 284.046875 159.480469 289.910156 138.953125 289.910156 114.773438 C 289.910156 78.90625 277.597656 50.804688 252.976562 30.464844 C 228.355469 10.125 194.472656 -0.0273438 151.328125 0 L 43.878906 0 L 43.878906 15.023438 L 149.394531 15.023438 C 186.0625 15.023438 218.773438 23.183594 239.523438 40.097656 C 258.824219 55.847656 265.902344 69.394531 271.554688 89.675781 C 265.816406 71.179688 252.296875 59.277344 243.898438 52.285156 C 229.191406 39.921875 210.925781 31.277344 161.15625 31.277344 L 78.28125 31.277344 L 78.28125 45.925781 L 159.308594 45.925781 C 201.78125 45.925781 217.367188 51.160156 231.652344 61.742188 C 249.945312 75.289062 261.289062 91.480469 261.289062 114.839844 C 261.289062 135.886719 253.902344 147.148438 241.503906 158.828125 C 240.050781 158.257812 238.601562 157.707031 237.105469 157.179688 L 238.511719 156.429688 C 251.945312 149.019531 261.242188 134.789062 261.242188 114.773438 C 261.242188 92.910156 248.714844 79.25 236.445312 71.550781 C 224.949219 64.335938 214.003906 59.5 167.289062 59.5 L 107.714844 59.5 L 107.714844 69.265625 L 165.617188 69.265625 C 207.78125 69.265625 223.761719 76.765625 228.597656 79.734375 C 238.074219 85.539062 250.582031 95.613281 250.582031 114.925781 C 250.582031 127.242188 243.304688 142.070312 232.554688 148.117188 C 229.066406 150.050781 225.378906 151.613281 221.566406 152.78125 C 205.5625 149.152344 189.191406 147.394531 172.785156 147.546875 L 100.921875 147.546875 L 100.921875 162.566406 L 170.804688 162.566406 C 207.472656 162.566406 240.667969 170.113281 260.9375 187.644531 C 276.234375 200.660156 287.367188 217.894531 292.941406 237.199219 C 287.226562 218.699219 275.488281 207.484375 265.308594 199.804688 C 249.921875 188.171875 232.335938 178.777344 182.566406 178.800781 L 69.90625 178.800781 L 69.90625 193.449219 L 180.71875 193.449219 C 223.191406 193.449219 238.753906 198.683594 253.066406 209.265625 C 271.355469 222.8125 282.523438 239 282.523438 262.363281 C 282.523438 284.882812 271.179688 301.3125 252.800781 314.863281 C 234.007812 328.722656 205.273438 329.140625 193.582031 329.140625 L 132.027344 329.140625 L 132.027344 343.765625 L 178.039062 343.765625 C 216.554688 343.765625 242.273438 340.46875 264.542969 323.96875 C 285.425781 308.441406 296.527344 288.359375 296.527344 262.382812 C 296.730469 276.304688 293.738281 290.085938 287.785156 302.667969 C 281.832031 315.25 273.078125 326.300781 262.1875 334.96875 C 241.109375 352.386719 203.496094 360.066406 165.859375 360.066406 L 44.714844 360.066406 L 44.714844 375 L 166.71875 375 C 212.148438 375 247.605469 365.132812 273.09375 345.394531 C 298.578125 325.65625 311.335938 297.925781 311.363281 262.207031 C 311.277344 226.296875 298.914062 198.1875 274.28125 177.878906 C 273.8125 177.488281 273.332031 177.125 272.847656 176.761719 Z M 275.003906 114.816406 C 275.015625 115.441406 275.019531 116.0625 275.019531 116.6875 C 275.023438 116.0625 275.019531 115.441406 275.003906 114.816406 Z M 275.019531 116.6875 C 274.976562 134.832031 269.519531 152.5625 259.332031 167.605469 C 258.035156 166.859375 256.714844 166.132812 255.394531 165.40625 C 267.917969 152.246094 274.925781 134.8125 275.019531 116.6875 Z M 199.492188 241.15625 L 93.886719 241.15625 L 93.886719 249.335938 L 199.492188 249.335938 Z M 137.4375 270.917969 L 198.855469 270.917969 L 198.855469 277.929688 L 137.4375 277.929688 Z M 75.863281 241.15625 L 44.582031 241.15625 L 44.582031 249.335938 L 75.863281 249.335938 Z M 25.082031 270.34375 L 120.089844 270.34375 L 120.089844 278.519531 L 25.082031 278.519531 Z M 114.484375 332.765625 L 25.082031 332.765625 L 25.082031 342.570312 L 114.484375 342.570312 Z M 48.492188 61.785156 L 85.511719 61.785156 L 85.511719 68.535156 L 48.492188 68.535156 Z M 107.496094 115.457031 L 22.707031 115.457031 L 22.707031 123.300781 L 107.496094 123.300781 Z M 58.667969 91.480469 L 199.050781 91.480469 L 199.050781 99.328125 L 58.667969 99.328125 Z M 196.394531 115.457031 L 128.863281 115.457031 L 128.863281 123.300781 L 196.394531 123.300781 Z M 282.390625 262.230469 C 282.390625 281.125 273.265625 295.269531 259.816406 302.414062 C 246.40625 309.519531 227.414062 313.613281 195.296875 313.613281 L 0 313.613281 L 0 304.308594 L 194.414062 304.308594 C 224.046875 304.308594 243.964844 299.535156 253.769531 294.210938 C 264.542969 288.339844 271.816406 274.0625 271.816406 262.1875 C 271.816406 243.601562 259.308594 233.8125 249.835938 228.203125 C 245 225.34375 228.996094 218.109375 186.851562 218.109375 L 112.683594 218.109375 L 112.683594 208.804688 L 188.589844 208.804688 C 236.160156 208.804688 246.25 213.488281 257.769531 220.441406 C 270.035156 227.894531 282.390625 241.136719 282.390625 262.230469 Z M 659.769531 96.671875 C 654.222656 96.824219 648.789062 95.058594 644.382812 91.675781 C 642.394531 90.234375 640.785156 88.339844 639.679688 86.148438 C 638.574219 83.953125 638.007812 81.53125 638.03125 79.074219 C 638.007812 76.605469 638.574219 74.167969 639.675781 71.960938 C 640.78125 69.753906 642.394531 67.84375 644.382812 66.382812 C 648.761719 62.945312 654.207031 61.15625 659.769531 61.324219 C 665.421875 61.15625 670.957031 62.941406 675.445312 66.382812 C 677.453125 67.804688 679.09375 69.6875 680.226562 71.875 C 681.355469 74.0625 681.945312 76.492188 681.945312 78.953125 C 681.945312 81.417969 681.355469 83.84375 680.226562 86.03125 C 679.09375 88.21875 677.453125 90.101562 675.445312 91.523438 C 670.976562 95.011719 665.433594 96.832031 659.769531 96.671875 Z M 676.171875 309.71875 L 642.558594 309.71875 L 642.558594 139.804688 L 676.171875 139.804688 Z M 423.300781 309.71875 L 423.300781 71.773438 L 506.835938 71.773438 C 532.234375 71.773438 552.378906 76.800781 567.269531 86.859375 C 582.15625 96.917969 589.601562 110.027344 589.601562 126.1875 C 589.78125 139.222656 584.941406 151.824219 576.082031 161.378906 C 567.070312 171.351562 554.613281 178.433594 538.710938 182.628906 L 538.710938 183.289062 C 558.511719 185.164062 574.351562 191.21875 586.238281 201.457031 C 592.027344 206.328125 596.640625 212.449219 599.726562 219.359375 C 602.816406 226.269531 604.300781 233.789062 604.066406 241.355469 C 604.066406 261.722656 595.054688 278.207031 577.027344 290.800781 C 559.003906 303.398438 536.285156 309.703125 508.882812 309.71875 Z M 457.726562 97 L 457.726562 173.828125 L 492.898438 173.828125 C 511.746094 173.828125 526.5625 170.164062 537.347656 162.832031 C 542.515625 159.496094 546.722656 154.871094 549.5625 149.414062 C 552.402344 143.957031 553.777344 137.855469 553.550781 131.707031 C 553.550781 108.597656 534.769531 97.042969 497.210938 97.042969 Z M 457.726562 198.882812 L 457.726562 284.511719 L 504.441406 284.511719 C 524.652344 284.511719 540.324219 280.640625 551.460938 272.894531 C 556.742188 269.460938 561.050781 264.722656 563.976562 259.144531 C 566.902344 253.5625 568.34375 247.324219 568.167969 241.027344 C 568.167969 212.945312 544.539062 198.898438 497.273438 198.882812 Z M 793.382812 313.371094 C 806.367188 313.382812 816.816406 311.617188 824.730469 308.070312 L 824.796875 284.839844 C 818.136719 288.738281 810.523438 290.691406 802.8125 290.472656 C 791.734375 290.472656 783.804688 288.039062 779.027344 283.167969 C 774.25 278.300781 771.859375 270.171875 771.859375 258.777344 L 771.859375 163.03125 L 824.730469 163.03125 L 824.730469 139.804688 L 771.859375 139.804688 L 771.859375 89.523438 L 738.269531 98.320312 L 738.269531 139.804688 L 702.195312 139.804688 L 702.195312 163.03125 L 738.269531 163.03125 L 738.269531 263.59375 C 738.257812 296.777344 756.625 313.371094 793.382812 313.371094 Z M 1129.914062 309.71875 L 1098.4375 309.71875 L 1098.4375 162.878906 C 1098.589844 148.648438 1099.472656 134.433594 1101.074219 120.292969 L 1100.324219 120.292969 C 1098.3125 127.609375 1095.597656 134.707031 1092.214844 141.496094 L 999.886719 309.71875 L 984.5 309.71875 L 892.324219 142.730469 C 888.839844 135.558594 886.117188 128.039062 884.210938 120.292969 L 883.464844 120.292969 C 884.699219 134.554688 885.207031 148.871094 884.984375 163.183594 L 884.984375 309.71875 L 854.25 309.71875 L 854.25 90.820312 L 896.019531 90.820312 L 978.957031 243.46875 C 983.832031 251.859375 987.996094 260.644531 991.402344 269.730469 L 992.542969 269.730469 C 997.9375 257.722656 1002.269531 248.769531 1005.535156 242.875 L 1090.167969 90.820312 L 1129.738281 90.820312 Z M 1300.617188 309.71875 L 1334.226562 309.71875 L 1334.226562 199.214844 C 1334.214844 156.953125 1309.554688 135.824219 1260.253906 135.824219 C 1233.332031 135.824219 1209.5625 141.128906 1188.941406 151.746094 L 1188.941406 179.636719 C 1209.058594 165.765625 1232.96875 158.460938 1257.398438 158.71875 C 1286.210938 158.734375 1300.617188 173.171875 1300.617188 202.027344 L 1237.722656 209.175781 C 1191.542969 214.367188 1168.453125 232.835938 1168.453125 264.582031 C 1168.277344 271.523438 1169.800781 278.402344 1172.886719 284.621094 C 1175.976562 290.839844 1180.535156 296.210938 1186.171875 300.257812 C 1198 309.21875 1214.363281 313.699219 1235.261719 313.699219 C 1263.632812 313.714844 1285.148438 303.535156 1299.800781 283.167969 L 1300.617188 283.167969 Z M 1250.054688 229.414062 L 1300.617188 223.78125 L 1300.746094 240.695312 C 1300.894531 247.519531 1299.507812 254.292969 1296.6875 260.511719 C 1293.871094 266.726562 1289.6875 272.230469 1284.457031 276.613281 C 1273.597656 286.070312 1259.835938 290.800781 1243.175781 290.800781 C 1231.039062 290.800781 1221.308594 288.175781 1213.980469 282.925781 C 1210.589844 280.738281 1207.804688 277.726562 1205.882812 274.175781 C 1203.960938 270.621094 1202.964844 266.640625 1202.992188 262.601562 C 1203.0625 251.195312 1207.027344 243.253906 1214.882812 238.78125 C 1222.738281 234.308594 1234.460938 231.1875 1250.054688 229.414062 Z M 1490.160156 167.339844 C 1484.308594 163.691406 1475.832031 161.863281 1464.753906 161.863281 C 1457.921875 161.753906 1451.144531 163.171875 1444.917969 166.011719 C 1438.703125 168.855469 1433.183594 173.050781 1428.792969 178.296875 C 1419.160156 189.246094 1414.351562 204.183594 1414.351562 223.097656 L 1414.351562 309.71875 L 1380.761719 309.71875 L 1380.761719 139.804688 L 1414.351562 139.804688 L 1414.351562 174.839844 L 1415.183594 174.839844 C 1419.484375 163.496094 1427.15625 153.738281 1437.164062 146.886719 C 1446.875 140.230469 1458.378906 136.722656 1470.136719 136.832031 C 1476.914062 136.589844 1483.679688 137.378906 1490.214844 139.164062 L 1490.214844 139.804688 L 1520.726562 139.804688 L 1520.726562 98.320312 L 1554.316406 89.523438 L 1554.316406 139.804688 L 1607.074219 139.804688 L 1607.074219 163.03125 L 1554.316406 163.03125 L 1554.316406 258.777344 C 1554.316406 270.171875 1556.703125 278.300781 1561.484375 283.167969 C 1566.265625 288.039062 1574.195312 290.472656 1585.269531 290.472656 C 1592.972656 290.691406 1600.59375 288.738281 1607.25 284.839844 L 1607.183594 308.070312 C 1599.265625 311.617188 1588.820312 313.382812 1575.839844 313.371094 C 1539.074219 313.371094 1520.710938 296.777344 1520.726562 263.59375 L 1520.726562 163.03125 L 1490.175781 163.03125 Z M 2.792969 360.175781 L 25.148438 360.175781 L 25.148438 374.394531 L 2.792969 374.394531 Z M 2.792969 360.175781 " fill-opacity="1" fill-rule="evenodd"/></svg>