<svg xmlns="http://www.w3.org/2000/svg" xmlns:xlink="http://www.w3.org/1999/xlink" width="500" zoomAndPan="magnify" viewBox="0 0 375 374.999991" height="500" preserveAspectRatio="xMidYMid meet" version="1.0"><path fill="#32ef8f" d="M 288.089844 375 C 285.238281 375 282.394531 374.863281 279.558594 374.582031 C 276.722656 374.304688 273.90625 373.886719 271.109375 373.332031 C 268.3125 372.777344 265.550781 372.085938 262.824219 371.257812 C 260.097656 370.429688 257.414062 369.472656 254.78125 368.382812 C 252.148438 367.292969 249.574219 366.074219 247.0625 364.734375 C 244.546875 363.390625 242.105469 361.925781 239.734375 360.34375 C 237.363281 358.761719 235.078125 357.0625 232.875 355.257812 C 230.667969 353.449219 228.558594 351.539062 226.542969 349.523438 L 25.476562 148.457031 C 23.964844 146.949219 22.511719 145.386719 21.113281 143.769531 C 19.714844 142.15625 18.378906 140.488281 17.105469 138.777344 C 15.828125 137.0625 14.621094 135.304688 13.476562 133.5 C 12.328125 131.695312 11.253906 129.851562 10.242188 127.972656 C 9.234375 126.089844 8.296875 124.171875 7.429688 122.21875 C 6.5625 120.265625 5.765625 118.285156 5.042969 116.273438 C 4.324219 114.265625 3.675781 112.230469 3.105469 110.171875 C 2.53125 108.113281 2.039062 106.039062 1.617188 103.941406 C 1.199219 101.847656 0.859375 99.742188 0.597656 97.621094 C 0.332031 95.5 0.148438 93.375 0.0429688 91.242188 C -0.0664062 89.109375 -0.09375 86.972656 -0.0429688 84.839844 C 0.0078125 82.703125 0.140625 80.570312 0.347656 78.445312 C 0.554688 76.320312 0.839844 74.203125 1.207031 72.101562 C 1.570312 69.996094 2.011719 67.90625 2.527344 65.832031 C 3.046875 63.761719 3.640625 61.710938 4.308594 59.683594 C 4.976562 57.652344 5.722656 55.652344 6.539062 53.679688 C 7.355469 51.707031 8.242188 49.765625 9.203125 47.855469 C 10.164062 45.949219 11.191406 44.078125 12.289062 42.246094 C 13.386719 40.414062 14.550781 38.625 15.78125 36.875 C 17.011719 35.128906 18.304688 33.429688 19.660156 31.78125 C 21.011719 30.128906 22.425781 28.527344 23.898438 26.980469 C 25.375 25.433594 26.902344 23.945312 28.484375 22.511719 C 30.066406 21.074219 31.699219 19.703125 33.382812 18.386719 C 35.070312 17.074219 36.800781 15.824219 38.574219 14.636719 C 40.351562 13.449219 42.167969 12.332031 44.027344 11.277344 C 45.886719 10.226562 47.78125 9.242188 49.714844 8.332031 C 51.644531 7.417969 53.605469 6.578125 55.601562 5.8125 C 57.59375 5.042969 59.613281 4.347656 61.65625 3.730469 C 63.703125 3.109375 65.765625 2.566406 67.851562 2.101562 C 69.933594 1.632812 72.035156 1.246094 74.148438 0.933594 C 76.261719 0.621094 78.382812 0.386719 80.511719 0.230469 C 82.640625 0.0742188 84.777344 0 86.910156 0 L 288.089844 0 C 289.511719 0 290.933594 0.0351562 292.351562 0.105469 C 293.773438 0.175781 295.191406 0.277344 296.605469 0.417969 C 298.023438 0.558594 299.433594 0.730469 300.839844 0.941406 C 302.246094 1.148438 303.648438 1.390625 305.042969 1.671875 C 306.4375 1.949219 307.828125 2.257812 309.207031 2.605469 C 310.585938 2.949219 311.957031 3.328125 313.316406 3.742188 C 314.679688 4.15625 316.027344 4.601562 317.367188 5.082031 C 318.707031 5.558594 320.035156 6.070312 321.347656 6.617188 C 322.660156 7.160156 323.960938 7.734375 325.246094 8.34375 C 326.535156 8.953125 327.804688 9.59375 329.058594 10.261719 C 330.3125 10.933594 331.550781 11.632812 332.769531 12.363281 C 333.988281 13.097656 335.191406 13.855469 336.375 14.648438 C 337.554688 15.4375 338.71875 16.257812 339.863281 17.105469 C 341.003906 17.949219 342.125 18.824219 343.222656 19.726562 C 344.324219 20.628906 345.402344 21.558594 346.453125 22.515625 C 347.507812 23.46875 348.539062 24.449219 349.542969 25.457031 C 350.550781 26.460938 351.53125 27.492188 352.484375 28.546875 C 353.441406 29.597656 354.371094 30.675781 355.273438 31.777344 C 356.175781 32.875 357.050781 33.996094 357.894531 35.136719 C 358.742188 36.28125 359.5625 37.445312 360.351562 38.625 C 361.144531 39.808594 361.902344 41.011719 362.636719 42.230469 C 363.367188 43.449219 364.066406 44.6875 364.738281 45.941406 C 365.40625 47.195312 366.046875 48.464844 366.65625 49.753906 C 367.261719 51.039062 367.839844 52.339844 368.382812 53.652344 C 368.929688 54.964844 369.441406 56.292969 369.917969 57.632812 C 370.398438 58.972656 370.84375 60.320312 371.257812 61.683594 C 371.671875 63.042969 372.050781 64.414062 372.394531 65.792969 C 372.742188 67.171875 373.050781 68.5625 373.328125 69.957031 C 373.609375 71.351562 373.851562 72.753906 374.058594 74.160156 C 374.269531 75.566406 374.441406 76.976562 374.582031 78.394531 C 374.722656 79.808594 374.824219 81.226562 374.894531 82.648438 C 374.964844 84.066406 375 85.488281 375 86.910156 L 375 288.089844 C 375 289.511719 374.960938 290.929688 374.890625 292.351562 C 374.820312 293.769531 374.710938 295.1875 374.570312 296.605469 C 374.429688 298.019531 374.253906 299.429688 374.046875 300.835938 C 373.835938 302.242188 373.589844 303.640625 373.3125 305.035156 C 373.03125 306.429688 372.71875 307.816406 372.375 309.195312 C 372.027344 310.574219 371.648438 311.945312 371.234375 313.304688 C 370.820312 314.664062 370.371094 316.015625 369.890625 317.351562 C 369.414062 318.691406 368.898438 320.015625 368.355469 321.332031 C 367.808594 322.644531 367.234375 323.941406 366.625 325.226562 C 366.015625 326.511719 365.375 327.78125 364.707031 329.035156 C 364.035156 330.289062 363.332031 331.527344 362.601562 332.746094 C 361.871094 333.964844 361.109375 335.164062 360.320312 336.347656 C 359.527344 337.53125 358.710938 338.691406 357.863281 339.832031 C 357.015625 340.976562 356.140625 342.097656 355.238281 343.195312 C 354.335938 344.292969 353.40625 345.371094 352.453125 346.421875 C 351.496094 347.476562 350.515625 348.507812 349.511719 349.511719 C 348.507812 350.515625 347.476562 351.496094 346.421875 352.453125 C 345.371094 353.40625 344.292969 354.335938 343.195312 355.238281 C 342.097656 356.140625 340.976562 357.015625 339.832031 357.863281 C 338.691406 358.710938 337.53125 359.527344 336.347656 360.320312 C 335.164062 361.109375 333.964844 361.871094 332.746094 362.601562 C 331.527344 363.332031 330.289062 364.035156 329.035156 364.707031 C 327.78125 365.375 326.511719 366.015625 325.226562 366.625 C 323.941406 367.234375 322.644531 367.808594 321.332031 368.355469 C 320.015625 368.898438 318.691406 369.414062 317.351562 369.890625 C 316.015625 370.371094 314.664062 370.820312 313.304688 371.234375 C 311.945312 371.648438 310.574219 372.027344 309.195312 372.375 C 307.816406 372.71875 306.429688 373.03125 305.035156 373.3125 C 303.640625 373.589844 302.242188 373.835938 300.835938 374.046875 C 299.429688 374.253906 298.019531 374.429688 296.605469 374.570312 C 295.1875 374.710938 293.769531 374.820312 292.351562 374.890625 C 290.929688 374.960938 289.511719 375 288.089844 375 Z M 288.089844 375 " fill-opacity="0.35" fill-rule="nonzero"/><path fill="#32ef8f" d="M 86.910156 375 C 84.777344 374.996094 82.648438 374.910156 80.519531 374.75 C 78.394531 374.589844 76.277344 374.347656 74.167969 374.03125 C 72.058594 373.714844 69.960938 373.320312 67.882812 372.847656 C 65.800781 372.378906 63.742188 371.832031 61.699219 371.207031 C 59.660156 370.585938 57.644531 369.886719 55.65625 369.117188 C 53.667969 368.34375 51.710938 367.503906 49.78125 366.585938 C 47.855469 365.671875 45.964844 364.6875 44.109375 363.632812 C 42.253906 362.578125 40.441406 361.457031 38.667969 360.269531 C 36.898438 359.082031 35.171875 357.832031 33.492188 356.519531 C 31.8125 355.203125 30.179688 353.828125 28.601562 352.394531 C 27.023438 350.960938 25.5 349.46875 24.027344 347.921875 C 22.558594 346.378906 21.148438 344.777344 19.796875 343.128906 C 18.445312 341.480469 17.15625 339.78125 15.929688 338.035156 C 14.703125 336.292969 13.539062 334.503906 12.445312 332.671875 C 11.347656 330.84375 10.320312 328.972656 9.363281 327.070312 C 8.40625 325.164062 7.519531 323.222656 6.703125 321.253906 C 5.886719 319.28125 5.144531 317.285156 4.476562 315.257812 C 3.808594 313.230469 3.214844 311.183594 2.695312 309.113281 C 2.175781 307.046875 1.734375 304.960938 1.371094 302.859375 C 1.007812 300.757812 0.71875 298.644531 0.507812 296.519531 C 0.300781 294.398438 0.167969 292.269531 0.117188 290.136719 C 0.0625 288.003906 0.0898438 285.875 0.191406 283.742188 C 0.296875 281.613281 0.476562 279.488281 0.738281 277.371094 C 1 275.253906 1.335938 273.148438 1.75 271.054688 C 2.164062 268.964844 2.65625 266.890625 3.222656 264.832031 C 3.792969 262.777344 4.433594 260.742188 5.152344 258.734375 C 5.867188 256.726562 6.65625 254.746094 7.519531 252.792969 C 8.382812 250.84375 9.316406 248.925781 10.320312 247.042969 C 11.320312 245.160156 12.394531 243.316406 13.53125 241.515625 C 14.671875 239.710938 15.875 237.949219 17.144531 236.234375 C 18.410156 234.519531 19.742188 232.855469 21.132812 231.238281 C 22.523438 229.617188 23.972656 228.054688 25.476562 226.542969 L 226.542969 25.476562 C 227.550781 24.472656 228.582031 23.492188 229.636719 22.535156 C 230.691406 21.578125 231.765625 20.648438 232.867188 19.746094 C 233.96875 18.84375 235.089844 17.96875 236.230469 17.121094 C 237.375 16.273438 238.539062 15.453125 239.722656 14.664062 C 240.90625 13.871094 242.105469 13.113281 243.328125 12.378906 C 244.546875 11.648438 245.785156 10.945312 247.042969 10.277344 C 248.296875 9.605469 249.566406 8.964844 250.855469 8.355469 C 252.140625 7.75 253.441406 7.171875 254.753906 6.628906 C 256.070312 6.082031 257.398438 5.570312 258.738281 5.089844 C 260.078125 4.613281 261.429688 4.164062 262.789062 3.753906 C 264.152344 3.339844 265.523438 2.960938 266.902344 2.613281 C 268.285156 2.269531 269.671875 1.957031 271.070312 1.679688 C 272.464844 1.402344 273.867188 1.160156 275.273438 0.949219 C 276.679688 0.742188 278.09375 0.566406 279.507812 0.425781 C 280.925781 0.289062 282.34375 0.183594 283.765625 0.113281 C 285.1875 0.0429688 286.609375 0.0078125 288.03125 0.0078125 C 289.457031 0.0078125 290.878906 0.0429688 292.300781 0.113281 C 293.722656 0.183594 295.140625 0.289062 296.554688 0.425781 C 297.972656 0.566406 299.386719 0.742188 300.792969 0.949219 C 302.199219 1.160156 303.601562 1.402344 304.996094 1.679688 C 306.394531 1.957031 307.78125 2.269531 309.164062 2.613281 C 310.542969 2.960938 311.914062 3.339844 313.277344 3.753906 C 314.636719 4.164062 315.988281 4.613281 317.328125 5.089844 C 318.667969 5.570312 319.996094 6.082031 321.3125 6.628906 C 322.625 7.171875 323.925781 7.75 325.210938 8.355469 C 326.5 8.964844 327.769531 9.605469 329.023438 10.277344 C 330.28125 10.945312 331.519531 11.648438 332.738281 12.378906 C 333.960938 13.113281 335.160156 13.871094 336.34375 14.664062 C 337.527344 15.453125 338.691406 16.273438 339.835938 17.121094 C 340.976562 17.96875 342.097656 18.84375 343.199219 19.746094 C 344.300781 20.648438 345.375 21.578125 346.429688 22.535156 C 347.484375 23.492188 348.515625 24.472656 349.523438 25.476562 C 350.527344 26.484375 351.507812 27.515625 352.464844 28.570312 C 353.421875 29.625 354.351562 30.699219 355.253906 31.800781 C 356.15625 32.902344 357.03125 34.023438 357.878906 35.164062 C 358.726562 36.308594 359.546875 37.472656 360.335938 38.65625 C 361.128906 39.839844 361.886719 41.039062 362.621094 42.261719 C 363.351562 43.480469 364.054688 44.71875 364.722656 45.976562 C 365.394531 47.230469 366.035156 48.5 366.644531 49.789062 C 367.25 51.074219 367.828125 52.375 368.371094 53.6875 C 368.917969 55.003906 369.429688 56.332031 369.910156 57.671875 C 370.386719 59.011719 370.835938 60.363281 371.246094 61.722656 C 371.660156 63.085938 372.039062 64.457031 372.386719 65.835938 C 372.730469 67.21875 373.042969 68.605469 373.320312 70.003906 C 373.597656 71.398438 373.839844 72.800781 374.050781 74.207031 C 374.257812 75.613281 374.433594 77.027344 374.574219 78.445312 C 374.710938 79.859375 374.816406 81.277344 374.886719 82.699219 C 374.957031 84.121094 374.992188 85.542969 374.992188 86.96875 C 374.992188 88.390625 374.957031 89.8125 374.886719 91.234375 C 374.816406 92.65625 374.710938 94.074219 374.574219 95.492188 C 374.433594 96.90625 374.257812 98.320312 374.050781 99.726562 C 373.839844 101.132812 373.597656 102.535156 373.320312 103.933594 C 373.042969 105.328125 372.730469 106.714844 372.386719 108.097656 C 372.039062 109.476562 371.660156 110.847656 371.246094 112.210938 C 370.835938 113.570312 370.386719 114.921875 369.910156 116.261719 C 369.429688 117.601562 368.917969 118.929688 368.371094 120.246094 C 367.828125 121.558594 367.25 122.859375 366.644531 124.148438 C 366.035156 125.433594 365.394531 126.703125 364.722656 127.957031 C 364.054688 129.214844 363.351562 130.453125 362.621094 131.671875 C 361.886719 132.894531 361.128906 134.09375 360.335938 135.277344 C 359.546875 136.460938 358.726562 137.625 357.878906 138.769531 C 357.03125 139.910156 356.15625 141.03125 355.253906 142.132812 C 354.351562 143.234375 353.421875 144.308594 352.464844 145.363281 C 351.507812 146.417969 350.527344 147.449219 349.523438 148.457031 L 148.457031 349.523438 C 146.441406 351.539062 144.332031 353.453125 142.132812 355.261719 C 139.929688 357.074219 137.640625 358.769531 135.273438 360.355469 C 132.902344 361.9375 130.460938 363.402344 127.945312 364.746094 C 125.433594 366.089844 122.859375 367.308594 120.226562 368.398438 C 117.589844 369.488281 114.910156 370.449219 112.179688 371.273438 C 109.453125 372.101562 106.691406 372.789062 103.894531 373.34375 C 101.097656 373.898438 98.28125 374.3125 95.445312 374.589844 C 92.605469 374.867188 89.761719 375.003906 86.910156 375 " fill-opacity="1" fill-rule="nonzero"/></svg>